<?xml version="1.0" encoding="utf-8"?>
<!-- Generator: Adobe Illustrator 20.0.0, SVG Export Plug-In . SVG Version: 6.00 Build 0)  -->
<svg version="1.1" id="Layer_1" xmlns="http://www.w3.org/2000/svg" xmlns:xlink="http://www.w3.org/1999/xlink" x="0px" y="0px"
	 viewBox="0 0 52 60.8" style="enable-background:new 0 0 52 60.8;" xml:space="preserve">
<style type="text/css">
	.st0{fill:#003D71;}
	.st1{clip-path:url(#SVGID_2_);fill:#8EC8ED;}
	.st2{clip-path:url(#SVGID_2_);fill:#C5E0F5;}
	.st3{fill:#FFFFFF;}
</style>
<path class="st0" d="M26,58.8c24.8-8,23.8-30.8,23.8-30.8c-8.5-13.6-0.6-20.7-0.6-20.7C41.2,5.2,45.8,2,45.8,2
	c-6.5,3.7-19.7,3.5-19.7,3.5S12.8,5.7,6.3,2c0,0,4.6,3.2-3.5,5.4c0,0,7.9,7.1-0.6,20.7C2.2,28.1,1.2,50.8,26,58.8z"/>
<g>
	<defs>
		<path id="SVGID_1_" d="M7.9,4.4c0-0.1,0-0.3,0-0.4c0-0.3-0.1-0.8-0.2-1.1c6.8,2.9,17.9,2.8,18.4,2.8c0.5,0,11.5,0.1,18.3-2.8
			c-0.1,0.3-0.3,0.7-0.3,1.1c0,0.1,0,0.2,0,0.4c0.2,1.3,1.8,2.3,4.5,3.1c-0.9,1-3,4-3,8.7c0,3.2,0.9,7.2,3.9,11.9c0,0,0,0.1,0,0.2
			c0,2.6-0.6,22.8-23.5,30.2C3.4,51.1,2.5,31.3,2.5,28.4c0-0.1,0-0.2,0-0.2c2.9-4.8,3.9-8.7,3.9-11.9c0-4.7-2.1-7.6-3-8.7
			C6.1,6.8,7.7,5.7,7.9,4.4z"/>
	</defs>
	<clipPath id="SVGID_2_">
		<use xlink:href="#SVGID_1_"  style="overflow:visible;"/>
	</clipPath>
	<path class="st1" d="M48.8,38l1.8-5.7l0.3-4.4l-2.3-4.4c0,0-0.9,1-1.6,1.7l-3.2-3.4l3.2-3.4l0.4-3L33.1,0.8l-3.2,0l15.5,16
		c-0.8,0.8-1.9,2-3.2,3.4L23.5,0.9l-10.4,0L37,25.7c-1,1.1-2.1,2.2-3.2,3.4L6.7,0.9L3.5,0.9l28.7,29.8c-9.4,9.8-25,25.7-25,25.7
		l1.7,1.5l24.8-25.6l3.2,3.4c-8.7,9.1-24.1,24.7-24.1,24.7l7,3.6l22.3-22.9l3.3,3.5l1.2-2.1l-3-3.1l3.2-3.4L48.8,38 M38.6,34.1
		l-3.2-3.4l3.2-3.4l3.2,3.4C40.8,31.8,39.7,32.9,38.6,34.1z"/>
	<polygon class="st2" points="50.8,29.2 50.4,32.6 47,36.1 41.8,30.7 47,25.2 	"/>
	<polygon class="st2" points="43.8,39.5 42.2,41.2 37,35.7 38.6,34.1 	"/>
	<polygon class="st2" points="35.4,30.7 33.8,32.4 32.2,30.7 33.8,29 	"/>
	<polygon class="st2" points="43.8,21.9 38.6,27.3 37,25.7 42.2,20.2 	"/>
	<polygon class="st2" points="48,16.2 48.2,17.3 47,18.5 45.4,16.8 47,15.2 	"/>
</g>
<path class="st3" d="M45.6,1.3C39.3,5,26.3,4.9,26.1,4.9C26,4.9,13,5,6.7,1.4C6.5,1.3,6.2,1.2,6,1.4C5.9,1.6,6,2,6.2,2.2
	c0,0,0.8,1.1,0.6,2.2C6.6,5,6.5,5.6,3,6.5c-0.1,0-0.6,0.3-0.6,0.4c0,0.1,0,0.5,0.1,0.8c0.3,1,7,8.3-0.9,20.2c0,0.1-0.1,0.1-0.1,0.2
	c0,0.2,0,5.9,2.9,12.6c2.6,6.2,8.5,14.6,21.5,18.8c0.1,0,0.2,0,0.2,0c13-4.2,18.9-12.6,21.5-18.8c2.8-6.7,2.9-12.4,2.8-12.6
	c0-0.1,0-0.1-0.1-0.2c-7.8-11.5-1.2-19.2-1-19.7c0.1-0.1,0.3-1,0.3-1.1c0-0.1-0.4-0.5-0.6-0.5c-3.2-1-3.6-1.4-3.9-2.2
	C45,3.4,46,2.6,46,2.6c0.1-0.3,0.2-0.9,0.1-1.1C46,1.3,45.7,1.2,45.6,1.3z M44.3,3.1C44.1,3.4,44,3.7,44,4.1c0,0.1,0,0.2,0,0.3
	c0.2,1.3,1.7,2.4,4.4,3.2c-0.9,1.1-3,4-3,8.7c0,3.2,1,7.2,3.9,11.9c0,0.1,0,0.1,0,0.2c0,1.3-0.2,6.3-2.6,11.9
	c-2.6,6-8.2,14-20.8,18.1C13.5,54.3,7.8,46.3,5.2,40.3c-2.4-5.7-2.6-10.6-2.6-11.9c0-0.1,0-0.2,0-0.2c2.9-4.8,3.9-8.8,3.9-11.9
	c0-4.6-2-7.5-3-8.6C6.3,6.8,7.8,5.7,8,4.4c0-0.1,0-0.2,0-0.3C8,3.7,8,3.4,7.8,3.1C14.6,6,25.6,5.9,26.1,5.9
	C26.6,5.9,37.5,6,44.3,3.1z"/>
<path class="st0" d="M26.1,59.9C26,59.9,26,59.8,26.1,59.9C1,51.8,1.3,28.2,1.3,28c0,0,0-0.1,0-0.1C7.7,17.9,4.6,12.2,3,9.2
	C2.6,8.5,2.2,7.9,2.1,7.4l0-0.1c0-0.1-0.1-0.3,0-0.5c0.1-0.3,0.5-0.4,0.6-0.4c2.2-0.6,3.5-1.3,3.8-1.9c0.2-0.5,0-1-0.3-1.5
	C6,2.6,5.8,2.2,5.8,1.8c0-0.2,0-0.6,0.3-0.7C6.3,1,6.6,1,6.7,1.1c6.2,3.6,19.2,3.5,19.3,3.5c0.1,0,13.1,0.1,19.3-3.5
	c0.1-0.1,0.4-0.2,0.7,0c0.3,0.2,0.3,0.5,0.3,0.6c0,0.5-0.2,0.9-0.5,1.3c-0.3,0.5-0.5,0.9-0.3,1.4c0.3,0.7,1.5,1.3,3.7,1.9
	c0.2,0.1,0.5,0.1,0.6,0.4C50,6.9,50,7.1,50,7.4c-0.1,0.5-0.4,1.1-0.8,1.8c-1.7,3.1-4.8,8.8,1.5,18.6c0,0,0,0.1,0,0.1
	C50.8,28.2,51.4,51.5,26.1,59.9C26.1,59.8,26.1,59.9,26.1,59.9z M1.9,28.1c0,1.5,0.4,23.4,24.2,31.2c24-8,24.2-29.8,24.2-31.2
	C43.8,18,47,12.1,48.7,8.9c0.4-0.7,0.7-1.3,0.7-1.6c0-0.1,0-0.2-0.1-0.3c0,0-0.1,0-0.2,0c-2.5-0.7-3.8-1.4-4.1-2.3
	c-0.3-0.7,0.1-1.3,0.4-1.8c0.2-0.4,0.4-0.7,0.4-1.1c0-0.1,0-0.1,0-0.2c-0.1,0-0.1,0-0.2,0c-6.4,3.6-19,3.5-19.6,3.5
	c-0.5,0-13.3,0.1-19.6-3.5c0,0-0.1,0-0.2,0c0,0,0,0.1,0,0.2c0,0.3,0.2,0.7,0.4,1C7,3.3,7.3,4,7,4.7C6.6,5.5,5.3,6.3,2.8,6.9
	C2.8,6.9,2.7,7,2.6,7c0,0,0,0.1,0,0.2l0,0.1c0.1,0.4,0.4,1,0.8,1.7C5.2,12.1,8.3,17.9,1.9,28.1z"/>
<path class="st3" d="M15.4,22.1c0,0,0.3,0.3,0.3,0.3c0.1,0,0.4-0.2,0.4-0.2c0,0,0,0,0,0c0,0,0.3,0.4,0.3,0.4c0.1,0,0.5-0.1,0.5-0.1
	c0,0,0,0,0,0c0,0,0.2,0.3,0.2,0.3c0.1,0,0.2-0.1,0.2-0.1c0,0,0.3,0.1,0.3,0.1c0,0-0.2,0.4-0.2,0.4c0,0-0.7,0.5-0.7,0.5
	c0,0.1-0.2,0.3-0.2,0.3c0.2,0.2,0.7,0.7,0.7,1.4c0,0.6-0.3,1-0.9,1.4c-0.1,0-0.3,0.2-0.3,0.2l-0.2,0.1c0,0.1-0.1,0.5-0.1,0.5l0,0.4
	l0,0.5l0.1,0l0.2,0.1c0,0,0.6,0.2,0.6,0.2s0.1,0,0.2,0c-0.1,0.1-0.1,0.2-0.2,0.2L16,29.1L15.8,29c-0.1,0-0.1,0.3-0.1,0.3
	c0,0,0,0.2,0,0.2c0,0,0,0.2,0,0.2l0,0.4l0.1,0l0.4-0.1c0,0,0,0,0.1-0.1c-0.1,0.1-0.2,0.3-0.3,0.3c0,0-0.3,0.1-0.3,0.1
	c0,0-0.1,0.9-0.1,0.9c0,0,0.2,0.1,0.2,0.1c0.2,0.1,0.8,0.4,1,0.2l0.1-0.1c0.2-0.1,0.5-0.3,0.5-0.5c0,0,0,0,0-0.1c0-0.1,0-0.3,0-0.4
	c0-0.3,0.1-0.4,0.2-0.6C17.8,30,18,30,18,30c0,0,0,0,0,0c0,0,0,0,0,0c0,0-0.2,0.3-0.2,0.3l0,0.4c0.2,0.3,0.3,0.3,0.4,0.3
	c0.2,0.1,0.5,0.1,0.7-0.1c0.1-0.1,0.2-0.2,0.2-0.4l0.3-1.2c0,0,0.1-0.2,0.1-0.2c0-0.1,0.1-0.3,0.1-0.3c0.1-0.1,0-0.2-0.1-0.3
	c-0.3-0.2-0.5-0.2-0.7-0.2c0,0-0.1,0.1-0.2,0.1c0.1-0.1,0.2-0.4,0.2-0.4c0,0,0.1-0.1,0.1-0.1c0.1-0.1,0.2-0.2,0.4-0.2
	c0.2,0,0.2,0,0.2-0.1c0,0,0,0,0,0c0-0.1-0.1-0.1-0.2-0.2l-0.2-0.1c0,0-0.6-0.1-0.6-0.1c-0.3,0-0.6-0.3-0.6-0.5c0,0,0-0.1,0-0.2
	C17.8,27,18,27,18,27c0.1,0.1,0.3,0.1,0.4,0.1l0.1,0L18.4,27c-0.1-0.1-0.3-0.4-0.3-0.7l0-0.1c0.1-0.2,0.3-0.4,0.4-0.4
	c0,0.1,0,0.3,0,0.3c0.1,0.3,0.4,0.9,0.6,0.9c0.1,0,0.1-0.3,0.1-0.5c0-0.1,0-0.2,0-0.2c0,0,0,0,0,0c0,0,0,0,0,0c0,0,0.3,0.3,0.3,0.4
	c0,0,0,0.1,0,0.1c0,0.2,0.1,0.3,0.2,0.3l0.1,0c0.2,0,0.4,0,0.6,0.1c0,0,0.4,0.4,0.4,0.4c0,0,0.1,0.2,0.1,0.2
	c0.1,0.2,0.5,0.6,0.7,0.6l0.1,0c0,0-0.1-0.4-0.1-0.6c0.1,0.1,0.3,0.4,0.3,0.7c0,0,0,0,0,0c0,0.5-0.2,0.7-0.4,0.9
	c-0.1,0.1-0.2,0.7-0.2,1.1c0,0.2,0,0.3,0,0.4c0,0,0,0,0,0c0,0.2-0.3,0.4-0.7,0.7c0,0-0.4,0.3-0.4,0.3c0,0,0,0.1,0,0.1
	c0,0.1-0.1,0.2-0.1,0.3c0,0,0,0,0,0.1l0,0l0.1,0c0.2,0,0.7,0,0.8-0.1c0,0,0,0,0,0s0,0,0,0c0,0,0,0,0,0c0,0-0.1,0.4-0.5,0.4l-0.1,0
	c-0.4,0-0.8,0.1-1.1,0c-0.3-0.2-0.8-0.3-1.1-0.2c-0.2,0.1-0.3,0.2-0.3,0.3v0l0.1,0.1c0.2,0.1,0.8,0.1,0.8,0.1c0,0,0,0,0.1,0
	c0,0,0,0,0,0c-0.1,0.1-0.5,0.3-0.9,0.3c-0.4,0-0.7-0.1-0.8-0.2c0,0-0.3-0.3-0.3-0.3c0,0-0.3-0.4-0.3-0.4c0,0-0.2-0.1-0.2-0.1
	c-0.1,0-0.1,0-0.1,0l-0.2-0.1l-0.3-0.3l-0.1,0.1l0,0.5l0,0.3c0,0,0.1,1.1,0.1,1.1c0,0-0.4,0.1-0.4,0.1S15,33.7,15,33.7
	c0,0,0.1-1.1,0.1-1.1c0,0,0-0.3,0-0.3l0-0.6L14.9,32l-0.2,0.2l-0.2,0.1c-0.1,0-0.1,0-0.1,0l-0.3,0.1l0,0c0,0-0.3,0.4-0.3,0.4
	c0,0-0.3,0.4-0.3,0.4c-0.2,0.1-0.4,0.2-0.8,0.2c-0.4,0-0.8-0.3-0.9-0.3c0,0,0,0,0,0c0,0,0.1,0,0.1,0c0,0,0.6,0,0.8-0.1l0,0l0-0.1
	c0-0.1-0.1-0.2-0.3-0.3c-0.3-0.1-0.8,0-1.1,0.2c-0.3,0.2-0.8,0.1-1.1,0c0,0-0.1,0-0.1,0c-0.3,0-0.5-0.4-0.5-0.4c0,0,0,0,0,0
	c0,0,0,0,0,0c0,0,0.5,0.1,0.7,0l0,0l0.1-0.1l0-0.1L10.5,32l0-0.1c0,0-0.3-0.2-0.3-0.2c-0.3-0.2-0.7-0.3-0.7-0.6c0,0,0-0.1,0-0.1
	c0-0.4-0.1-1.5-0.3-1.6c-0.2-0.2-0.4-0.3-0.4-0.9c0,0,0,0,0,0c0-0.4,0.2-0.6,0.3-0.8c0,0.2-0.1,0.6-0.1,0.6l0.1,0
	c0.1,0,0.5-0.4,0.7-0.6l0.2-0.3c0,0,0.3-0.3,0.3-0.3c0.2-0.1,0.4-0.1,0.6-0.1l0.1,0c0.2,0,0.2-0.1,0.2-0.3l0-0.2
	c0-0.1,0.3-0.4,0.3-0.4c0,0,0,0,0,0c0,0,0,0,0,0c0,0.1,0,0.2,0,0.3c0,0.2,0,0.5,0.1,0.5c0.2,0,0.5-0.5,0.6-0.9c0,0,0-0.2,0-0.3
	c0.1,0.1,0.3,0.2,0.4,0.4l0,0.1c0,0.2-0.2,0.5-0.2,0.7c0,0-0.1,0.1-0.1,0.1l0.1,0c0.1,0,0.3,0,0.4-0.1c0,0,0.1-0.1,0.2-0.2
	c0,0,0.1,0.1,0.1,0.2c0,0,0,0,0,0c0,0.2-0.3,0.5-0.6,0.5l-0.6,0.1c0,0-0.2,0.1-0.2,0.1c-0.2,0-0.2,0.1-0.2,0.2c0,0,0,0,0,0
	c0,0,0.1,0.1,0.2,0.1c0.3,0,0.4,0,0.5,0.2l0.1,0.1c0,0,0.1,0.2,0.2,0.4c-0.1-0.1-0.2-0.1-0.2-0.1c-0.2-0.1-0.4,0-0.7,0.2
	c-0.2,0.1-0.2,0.2-0.1,0.3c0,0,0.1,0.2,0.1,0.2c0,0,0.1,0.2,0.1,0.2l0.3,1.2c0,0.2,0.1,0.3,0.2,0.4c0.2,0.2,0.5,0.1,0.6,0.1
	c0.2,0,0.3-0.1,0.5-0.4l0-0.4L12.8,30c0,0,0,0,0,0c0,0,0,0,0,0c0,0,0,0,0,0c0,0,0.2,0,0.4,0.2c0.2,0.2,0.2,0.5,0.2,0.9
	c-0.1,0.3,0.2,0.5,0.5,0.6c0,0,0.1,0.1,0.1,0.1c0.2,0.2,0.9-0.2,0.9-0.2c0,0,0.2-0.1,0.2-0.1c0,0,0-0.1,0-0.2c0-0.3,0-0.7,0-0.7
	c0,0-0.3-0.2-0.3-0.2c-0.1,0-0.2-0.2-0.3-0.3c0,0,0.1,0.1,0.1,0.1l0.4,0.1c0.1,0,0.1,0,0.1,0c0-0.1,0.1-0.4,0.1-0.4l0-0.2v-0.2
	c0,0,0-0.3,0-0.3c-0.1,0-0.3,0-0.3,0c0,0-0.6,0.1-0.6,0.1c0,0-0.1-0.1-0.2-0.2c0.1,0,0.1,0,0.2,0c0.6-0.2,0.6-0.2,0.6-0.3
	c0,0,0,0,0,0c0,0,0.2,0,0.2,0l0,0l0-0.1l0-0.5l0-0.4l0,0L15,27.3c0-0.1-0.2-0.2-0.2-0.2l-0.2-0.1c-0.3-0.2-1-0.6-1-1.4
	c0-0.7,0.4-1.2,0.6-1.4c0-0.1-0.2-0.4-0.2-0.4c0,0-0.7-0.5-0.7-0.5l0,0c0,0-0.2-0.4-0.2-0.4l0,0c0,0,0.3-0.2,0.3-0.2
	c0,0,0.1,0.1,0.1,0.1c0.1,0,0.3-0.3,0.3-0.4c0,0,0.4,0.1,0.4,0.1c0,0,0.3-0.3,0.3-0.3c0,0,0.3,0.2,0.3,0.2
	C15.1,22.4,15.4,22.2,15.4,22.1z"/>
</svg>
